# xmcd
#
# Track frame offsets: 
#        150
#        29511
#        48389
#        72038
#        94672
#        128018
#        150145
#        169556
#        184960
#        202838
#        230581
#        274044
#        309180
#
# Disc length: 4597 seconds
#
# Revision: 0
# Processed by: cddbd v1.5.2PL0 Copyright (c) Steve Scherf et al.
# Submitted via: ExactAudioCopyFreeDBPlugin 1.0
#
DISCID=9c11f30d
DTITLE=Faith Hope and Charity - Life Goes On
DYEAR=1976
DGENRE=R&B 70's
TTITLE0=Life Goes On
TTITLE1=Gradually
TTITLE2=I Want A Man
TTITLE3=Positive Thinking
TTITLE4=You're My Peace Of Mind
TTITLE5=Cherish - Monday Monday
TTITLE6=You've Gotta Tell Her
TTITLE7=Just Wanted To Say I Love You
TTITLE8=A Time For Celebration
TTITLE9=Life Goes On (12" Version)
TTITLE10=You're My Peace Of Mind (12" Version)
TTITLE11=Gradually (12" Version)
TTITLE12=Positive Thinking (12" Version)
EXTD=
EXTT0=
EXTT1=
EXTT2=
EXTT3=
EXTT4=
EXTT5=
EXTT6=
EXTT7=
EXTT8=
EXTT9=
EXTT10=
EXTT11=
EXTT12=
PLAYORDER=
